<?xml version="1.0" encoding="UTF-8"?>
<svg version="1.1" xmlns="http://www.w3.org/2000/svg" width="1425" height="739">
<path d="M0 0 C4.32470936 2.16235468 5.97118696 4.39350116 8.5625 8.25 C9.44522127 9.52270703 10.33072823 10.79348567 11.21875 12.0625 C11.67507813 12.71476562 12.13140625 13.36703125 12.6015625 14.0390625 C21.67195458 26.75788044 32.06293845 38.13102685 43.0625 49.1875 C43.81861572 49.94836914 44.57473145 50.70923828 45.35375977 51.49316406 C49.56156257 55.68860579 53.85541675 59.7177273 58.36889648 63.58325195 C59.62363304 64.67309422 60.82481491 65.82481491 62 67 C61.54443161 70.86833508 59.44115863 73.50151789 57.25390625 76.609375 C54.25392705 82.32896151 53.74863122 88.3212066 53.7215271 94.68164062 C53.7128385 95.77607687 53.7128385 95.77607687 53.70397437 96.89262295 C53.68709994 99.31387803 53.68410881 101.73494107 53.68115234 104.15625 C53.67184548 105.90125489 53.66167568 107.64625535 53.65071106 109.39125061 C53.62348253 114.11169135 53.60828288 118.83210237 53.59528303 123.55260086 C53.57962116 128.49205167 53.5528407 133.43144205 53.5272522 138.37084961 C53.48051848 147.71683417 53.44374821 157.06283017 53.41057932 166.40887165 C53.37231971 177.05218108 53.32291961 187.69542974 53.27259517 198.3386879 C53.16935573 220.2257477 53.08046453 242.11284564 53 264 C62.24 264 71.48 264 81 264 C81.04487549 261.82003418 81.08975098 259.64006836 81.13598633 257.39404297 C81.28655251 250.18131699 81.45286234 242.96901547 81.62686634 235.75681877 C81.73185574 231.38520381 81.83158384 227.01360218 81.91918945 222.64160156 C82.00397219 218.42022651 82.10270398 214.19938483 82.21100426 209.97854996 C82.24983554 208.37037439 82.28368897 206.76207046 82.31241798 205.15368271 C82.3536056 202.89601916 82.41267954 200.63946579 82.47583008 198.38232422 C82.519132 196.45705399 82.519132 196.45705399 82.56330872 194.4928894 C83.1346465 189.9230256 84.45792848 186.42161598 87.87841797 183.26831055 C88.57596191 182.81238525 89.27350586 182.35645996 89.9921875 181.88671875 C90.77376221 181.36505127 91.55533691 180.84338379 92.3605957 180.3059082 C93.60522583 179.50479614 93.60522583 179.50479614 94.875 178.6875 C96.59543527 177.55005854 98.31548585 176.41203502 100.03515625 175.2734375 C100.87965332 174.72010742 101.72415039 174.16677734 102.59423828 173.59667969 C104.73579053 172.17535315 106.84169687 170.71960263 108.93359375 169.2265625 C109.51189941 168.81446533 110.09020508 168.40236816 110.68603516 167.9777832 C112.20491771 166.8895775 113.72168147 165.79841614 115.23828125 164.70703125 C122.57741013 160.17068144 125.48701953 161.13518359 135 162 C135.33 194.34 135.66 226.68 136 260 C152.36485879 255.9087853 163.73347921 249.77738059 172.8125 235.3125 C184.63411673 213.53007659 182.44423575 186.0989318 183 162 C186.17423584 161.06173511 189.01515782 160.87860752 192.31933594 160.88647461 C193.38013367 160.88655014 194.4409314 160.88662567 195.53387451 160.88670349 C196.67253967 160.89186478 197.81120483 160.89702606 198.984375 160.90234375 C200.15510559 160.9037587 201.32583618 160.90517365 202.53204346 160.90663147 C206.27138829 160.9122291 210.01067326 160.9247812 213.75 160.9375 C216.28515539 160.9425153 218.82031171 160.94707816 221.35546875 160.95117188 C227.57033293 160.96219776 233.78516219 160.97893356 240 161 C240.18562458 182.53191607 239.67100175 204.02674765 239.07287598 225.54821777 C238.94955293 230.01449508 238.83045201 234.48088507 238.7109375 238.94726562 C238.477962 247.63162237 238.24051081 256.31584868 238 265 C239.0204541 265.06638672 240.0409082 265.13277344 241.09228516 265.20117188 C242.44954677 265.29032648 243.80680575 265.37952132 245.1640625 265.46875 C246.1696521 265.53400879 246.1696521 265.53400879 247.19555664 265.60058594 C261.54744216 266.54744216 261.54744216 266.54744216 263 268 C263.08874135 271.10251201 263.11518455 274.1826812 263.09765625 277.28515625 C263.0962413 278.21597519 263.09482635 279.14679413 263.09336853 280.1058197 C263.08775172 283.09141191 263.0751964 286.07693029 263.0625 289.0625 C263.05748716 291.08137913 263.05292388 293.10025943 263.04882812 295.11914062 C263.03777683 300.07945572 263.02050095 305.03971532 263 310 C261.4009833 310.3221332 259.80183718 310.64362403 258.20263672 310.96484375 C257.31212616 311.14394287 256.4216156 311.32304199 255.50411987 311.50756836 C251.83078506 312.22992447 248.13974741 312.83432695 244.4453125 313.4375 C241.98773791 314.00282067 240.1311219 314.65502529 238 316 C233.86954274 325.08700598 235.91112988 336.40372026 236.77197266 346.05004883 C238.51228543 365.59273761 239.8121555 386.54402045 227 403 C220.52437994 409.83825479 213.91996949 413.66282759 204.43359375 414.203125 C187.51476703 414.40158631 174.61813127 410.68209816 161.93359375 399.0859375 C160 397 160 397 159 394 C160.19496094 393.43732422 160.19496094 393.43732422 161.4140625 392.86328125 C170.57680782 388.43796508 177.39508911 384.94398126 181 375 C183.65386767 365.29034043 184.1547268 355.16269351 184.16796875 345.14453125 C184.17129715 344.2398259 184.17462555 343.33512054 184.17805481 342.40299988 C184.18308098 340.50133771 184.18546448 338.59966685 184.18530273 336.69799805 C184.1874814 333.83692362 184.20566231 330.9762405 184.22460938 328.11523438 C185.26273974 310.53386436 185.26273974 310.53386436 180.15234375 294.57104492 C177.94146175 292.57868606 177.94146175 292.57868606 174.32421875 293.4765625 C169.59836305 294.96479729 165.22912451 297.15518025 160.8125 299.375 C148.08034054 305.54096599 135.68259341 310.68565366 121.28125 307.375 C113.06877458 304.46424922 106.3516751 298.76000451 99.6953125 293.29296875 C99.13239502 292.83937988 98.56947754 292.38579102 97.98950195 291.91845703 C96.39381285 290.62824634 94.81552294 289.31660423 93.23828125 288.00390625 C89.24480937 285.53267456 86.63874377 285.27641485 82 285 C81.97494385 285.7520874 81.9498877 286.5041748 81.92407227 287.27905273 C81.80849486 290.66539196 81.68559655 294.05142613 81.5625 297.4375 C81.52318359 298.62150391 81.48386719 299.80550781 81.44335938 301.02539062 C81.40146484 302.15009766 81.35957031 303.27480469 81.31640625 304.43359375 C81.27974854 305.47572021 81.24309082 306.51784668 81.20532227 307.59155273 C81 310 81 310 80 311 C78.14109539 311.1589644 76.27630285 311.24952977 74.41169739 311.31311035 C73.21913424 311.3546096 72.0265711 311.39610886 70.79786968 311.43886566 C68.84021789 311.49716427 68.84021789 311.49716427 66.84301758 311.55664062 C66.17221401 311.5776373 65.50141044 311.59863398 64.81027949 311.62026691 C50.39588436 312.06754849 35.98680724 312.13756576 21.56587815 312.09871864 C18.72958034 312.09185815 15.89328201 312.08887 13.05697817 312.08559561 C-20.54334798 312.04447056 -54.14305206 311.80276625 -87.742365 311.55461884 C-97.81409421 311.48034399 -107.8858512 311.41002202 -117.95760632 311.33936501 C-133.63842708 311.22926344 -149.31920773 311.11426472 -165 311 C-165.495 263.48 -165.495 263.48 -166 215 C-181.99971706 218.6922424 -194.55024124 225.52376098 -203.875 239.3125 C-213.11332194 254.84769704 -212.51081909 271.22288734 -211.3581543 288.64379883 C-210.92682076 295.43555333 -210.90293128 302.19440416 -211 309 C-221.31418612 312.36332156 -231.88849995 312.16109893 -242.63378906 312.13037109 C-244.89134277 312.12496083 -247.14870193 312.13037184 -249.40625 312.13671875 C-250.85156294 312.13605874 -252.29687575 312.13477919 -253.7421875 312.1328125 C-255.68907471 312.13112061 -255.68907471 312.13112061 -257.67529297 312.12939453 C-261 312 -261 312 -265 311 C-265 260.84 -265 210.68 -265 159 C-247.51 159 -230.02 159 -212 159 C-208.86537355 165.26925289 -209.86880611 174.14876351 -210 181 C-203.60241792 177.65372893 -197.33728403 174.30025104 -191.3125 170.3125 C-179.06413028 162.35552989 -166.77966743 160.27611944 -152.4375 163.0625 C-145.66010658 164.82286193 -140.59666761 167.91282647 -135 172 C-133.41028466 173.13169082 -131.82042855 174.26318391 -130.23046875 175.39453125 C-128.50622722 176.63582172 -126.78358123 177.87933139 -125.0625 179.125 C-124.23282715 179.7228833 -123.4031543 180.3207666 -122.54833984 180.93676758 C-117.83064266 184.41065562 -113.67746006 187.64507987 -111 193 C-109.97139488 202.31189167 -109.81433219 211.69532813 -109.68359375 221.0546875 C-109.66281265 222.32224884 -109.64203156 223.58981018 -109.62062073 224.89578247 C-109.56691364 228.21312074 -109.51649381 231.53048589 -109.46777344 234.84790039 C-109.41690381 238.25411435 -109.3615649 241.66025568 -109.30664062 245.06640625 C-109.200382 251.71087907 -109.0984687 258.35540741 -109 265 C-108.18541321 264.99746216 -107.37082642 264.99492432 -106.53155518 264.99230957 C-105.45798767 264.99033569 -104.38442017 264.98836182 -103.27832031 264.98632812 C-101.68519012 264.98252136 -101.68519012 264.98252136 -100.05987549 264.9786377 C-96.26703586 265.00511714 -92.53258628 265.21980842 -88.75 265.5 C-87.46609375 265.5928125 -86.1821875 265.685625 -84.859375 265.78125 C-83.91578125 265.8534375 -82.9721875 265.925625 -82 266 C-81.97812622 265.02728149 -81.97812622 265.02728149 -81.95581055 264.03491211 C-81.23340817 235.20263338 -75.88475524 211.92039475 -55 191 C-54.26523437 190.25363281 -53.53046875 189.50726563 -52.7734375 188.73828125 C-38.13061965 174.70762134 -19.96446484 167.32148828 -1 161 C-0.67 107.87 -0.34 54.74 0 0 Z M-27 227 C-27.67933594 227.598125 -28.35867188 228.19625 -29.05859375 228.8125 C-36.8371712 236.10583538 -43.48648016 245.86356345 -44.17578125 256.78515625 C-44.18596777 259.1993626 -44.13584439 261.59001987 -44 264 C-40.80061173 265.59969413 -37.32950672 265.14181878 -33.81640625 265.1328125 C-33.0050975 265.13376923 -32.19378876 265.13472595 -31.3578949 265.13571167 C-29.64053266 265.13639271 -27.92316785 265.13454372 -26.20581055 265.13037109 C-23.57660124 265.12502865 -20.9475633 265.13031507 -18.31835938 265.13671875 C-16.65104129 265.13605782 -14.98372331 265.13477635 -13.31640625 265.1328125 C-12.13504845 265.13584885 -12.13504845 265.13584885 -10.92982483 265.13894653 C-7.69264047 265.12504608 -5.093145 265.03104833 -2 264 C0.21705817 259.97561847 0.33038429 256.14029886 0.484375 251.609375 C0.52053925 250.55330048 0.52053925 250.55330048 0.55743408 249.47589111 C0.60556463 247.99009179 0.64899151 246.5041335 0.68798828 245.01806641 C0.74944279 242.77037974 0.83270604 240.52423793 0.91796875 238.27734375 C1.15755295 230.90675099 1.10130517 224.14443756 -1 217 C-10.98338762 216.11258777 -19.67227176 220.4998386 -27 227 Z " fill="#A17346" transform="translate(511,60)"/>
<path d="M0 0 C0.66 0 1.32 0 2 0 C3.55675367 2.03200528 5.00476179 4.07030807 6.4375 6.1875 C11.53811703 13.51782866 17.08381615 20.31686473 23 27 C23.44456543 27.50241211 23.88913086 28.00482422 24.34716797 28.52246094 C34.76603796 40.22418047 45.6066499 51.37318959 58 61 C58.88558594 61.69480469 59.77117187 62.38960937 60.68359375 63.10546875 C62.78240854 64.74588406 64.88724151 66.37761015 67 68 C65.88625 68.99 65.88625 68.99 64.75 70 C56.68737952 78.35266713 57.4189697 87.66560998 57.45410156 98.5234375 C57.44535973 100.30785521 57.43487182 102.09226509 57.42277527 103.87666321 C57.39496936 108.70461056 57.39150939 113.53230144 57.39249516 118.36031723 C57.38936141 123.41190045 57.36373357 128.46336894 57.34051514 133.51489258 C57.29998701 143.07339423 57.2796219 152.63182771 57.26654124 162.19040203 C57.25066042 173.07556851 57.2122402 183.96061916 57.17194796 194.84571838 C57.0895926 217.23044341 57.03627266 239.61515696 57 262 C64.59 262.66 72.18 263.32 80 264 C80 278.52 80 293.04 80 308 C-0.19 308 -80.38 308 -163 308 C-165.25 294.5 -165.25 294.5 -165 289 C-169.10070862 291.22864599 -172.86660149 293.60533051 -176.625 296.375 C-189.82757862 305.71096606 -204.79728883 310.78247648 -221 309 C-224.82391315 307.95869234 -227.72305248 306.20757949 -231 304 C-231.94794434 303.36360596 -231.94794434 303.36360596 -232.91503906 302.71435547 C-259.40176054 284.79471839 -259.40176054 284.79471839 -262 277 C-262.11163971 274.30910683 -262.16765875 271.6434293 -262.17700195 268.9519043 C-262.18357315 268.13205048 -262.19014435 267.31219666 -262.19691467 266.46749878 C-262.21663279 263.75307117 -262.22830657 261.03869883 -262.23828125 258.32421875 C-262.24235678 257.39669107 -262.2464323 256.4691634 -262.25063133 255.51352882 C-262.2714851 250.60480599 -262.28579018 245.69611106 -262.29516602 240.78735352 C-262.30623281 235.71977875 -262.34063779 230.6526428 -262.38033772 225.5852232 C-262.40649191 221.68611336 -262.41485676 217.78710832 -262.41844749 213.88791847 C-262.42331605 212.02002814 -262.43493771 210.15214258 -262.45348549 208.284338 C-262.4778531 205.66796518 -262.47691653 203.05273103 -262.4699707 200.4362793 C-262.48278076 199.66775131 -262.49559082 198.89922333 -262.50878906 198.10740662 C-262.45873567 192.92377735 -261.30103274 189.97530041 -258 186 C-255.15234375 184.1640625 -255.15234375 184.1640625 -251.9375 182.625 C-242.69903168 177.92800095 -230.98814493 171.35149007 -225.3125 162.3125 C-222.51437405 159.51437405 -220.67306931 159.23919617 -216.85546875 158.35546875 C-215.2161438 157.96911255 -215.2161438 157.96911255 -213.54370117 157.57495117 C-212.70427979 157.38521729 -211.8648584 157.1954834 -211 157 C-209.98630521 177.48947627 -209.70497021 197.97408496 -209.46777344 218.48376465 C-209.41660081 222.84272364 -209.36142636 227.20163206 -209.30664062 231.56054688 C-209.20062499 240.04032124 -209.0988653 248.52013926 -209 257 C-207.39461746 256.85916542 -205.78972401 256.71274783 -204.18505859 256.56396484 C-203.2912851 256.48302582 -202.3975116 256.40208679 -201.47665405 256.31869507 C-190.12893445 254.85847406 -179.3066115 243.44755857 -172.5 234.875 C-167.6148751 227.8571362 -165.02614617 220.56637627 -164.71875 212.02954102 C-164.68201172 211.06826797 -164.64527344 210.10699493 -164.60742188 209.11659241 C-164.57197266 208.08940598 -164.53652344 207.06221954 -164.5 206.00390625 C-164.4390918 204.40445412 -164.4390918 204.40445412 -164.37695312 202.77268982 C-164.2474845 199.36942332 -164.12314271 195.96600091 -164 192.5625 C-163.83772683 188.0844578 -163.6703625 183.60664714 -163.5 179.12890625 C-163.46455078 178.10374405 -163.42910156 177.07858185 -163.39257812 176.02235413 C-163.35583984 175.05792892 -163.31910156 174.09350372 -163.28125 173.09985352 C-163.25095703 172.25777847 -163.22066406 171.41570343 -163.18945312 170.54811096 C-162.97614887 167.67920658 -162.4729468 164.83768081 -162 162 C-144.18 162 -126.36 162 -108 162 C-108 195.66 -108 229.32 -108 264 C-99.09 263.34 -90.18 262.68 -81 262 C-80.484375 258.473125 -79.96875 254.94625 -79.4375 251.3125 C-75.74575007 228.33253493 -68.00470977 206.33122625 -52 189 C-51.06607422 187.94619141 -51.06607422 187.94619141 -50.11328125 186.87109375 C-38.08665566 173.9872244 -20.03110013 164.29307997 -3 160 C-2.01 160 -1.02 160 0 160 C0 107.2 0 54.4 0 0 Z M-30.54296875 227.38671875 C-38.37347027 235.71518539 -45.87527675 246.14243513 -46.0625 257.9375 C-44.70212983 261.85856697 -43.55411864 262.85581979 -40 265 C-36.76681356 265.53895166 -33.5942238 265.46623291 -30.32421875 265.390625 C-29.3990596 265.38496521 -28.47390045 265.37930542 -27.52070618 265.37347412 C-24.57577014 265.3511448 -21.63206614 265.30095486 -18.6875 265.25 C-16.68686657 265.22993054 -14.68621401 265.21168055 -12.68554688 265.1953125 C-7.78989236 265.15129125 -2.89515482 265.08228747 2 265 C2.02537362 258.25562341 2.04287685 251.51125916 2.05493164 244.7668457 C2.05995761 242.47289571 2.06677938 240.17894892 2.07543945 237.88500977 C2.08758096 234.58609222 2.09324572 231.28721707 2.09765625 227.98828125 C2.10281754 226.96414627 2.10797882 225.94001129 2.11329651 224.88484192 C2.11337204 223.92422348 2.11344757 222.96360504 2.11352539 221.97387695 C2.115746 221.13226517 2.11796661 220.29065338 2.12025452 219.42353821 C1.99333791 216.86573618 1.56187588 214.49545389 1 212 C-11.37124302 212 -21.85015506 219.24148387 -30.54296875 227.38671875 Z " fill="#9D6F44" transform="translate(1307,61)"/>
<path d="M0 0 C1.36499634 -0.06429199 1.36499634 -0.06429199 2.75756836 -0.12988281 C10.47395447 -0.20481939 15.53353376 2.3777879 21.9375 6.5 C22.81414307 7.05864746 23.69078613 7.61729492 24.59399414 8.19287109 C27.2307335 9.91014846 29.836953 11.66596207 32.4375 13.4375 C34.27014129 14.67550423 36.10346776 15.91249482 37.9375 17.1484375 C38.80117188 17.73077148 39.66484375 18.31310547 40.5546875 18.91308594 C43.47904038 20.86065702 46.44725932 22.71797654 49.4375 24.5625 C54.10042162 27.50088077 58.13297025 30.08641074 59.9375 35.5 C60.0934996 38.58437314 60.19124591 41.64850678 60.24511719 44.73510742 C60.26527138 45.72005251 60.28542557 46.7049976 60.30619049 47.71978951 C60.37229844 51.11909525 60.42917307 54.51846896 60.484375 57.91796875 C60.51541447 59.73581407 60.51541447 59.73581407 60.54708099 61.59038353 C61.18059695 99.76855581 61.16033266 137.95478927 61.1763196 176.13716614 C61.18110728 187.36104295 61.19882076 198.58480153 61.2273953 209.80864269 C61.24902005 218.61500452 61.25909814 227.42133282 61.26043582 236.22772092 C61.26147616 241.43861315 61.26722771 246.64939077 61.28525543 251.86025429 C61.30176743 256.71928022 61.30387667 261.57810499 61.29511642 266.43714905 C61.29434984 268.20758799 61.29863838 269.9780381 61.30857468 271.74844933 C61.43820618 296.28903169 53.40236353 312.98417713 36.3125 330.5 C15.78729811 350.91016874 -11.54720205 363.26570982 -40.0625 367.5 C-41.15304687 367.665 -42.24359375 367.83 -43.3671875 368 C-52.79674144 369.12872466 -58.88718379 366.78143391 -66.25317383 361.01953125 C-66.95337646 360.45621094 -67.6535791 359.89289063 -68.375 359.3125 C-69.86363966 358.14072723 -71.35322379 356.97015334 -72.84375 355.80078125 C-73.56175781 355.23439941 -74.27976562 354.66801758 -75.01953125 354.08447266 C-78.54216046 351.35241439 -82.1956521 348.81462021 -85.86328125 346.28125 C-89.31843126 343.4827626 -91.65233104 340.73050688 -93.0625 336.5 C-93.17364812 335.06477212 -93.23270969 333.6251735 -93.25868225 332.18588257 C-93.28598954 330.85687392 -93.28598954 330.85687392 -93.3138485 329.50101662 C-93.32895281 328.52663328 -93.34405712 327.55224995 -93.35961914 326.54833984 C-93.37925531 325.51379858 -93.39889149 324.47925732 -93.4191227 323.41336632 C-93.48364489 319.92929368 -93.5408797 316.44514445 -93.59765625 312.9609375 C-93.64116902 310.46909284 -93.68485916 307.97725126 -93.72871399 305.4854126 C-93.85799059 297.99089061 -93.97687781 290.49623539 -94.09221554 283.00148869 C-94.1248885 280.88223187 -94.15790415 278.76298062 -94.19098663 276.64373016 C-94.8764677 232.59699622 -95.32687551 188.54998136 -95.42052764 144.49786603 C-95.43182165 139.55734035 -95.45319482 134.616923 -95.47879028 129.67645264 C-95.51295497 122.99862421 -95.52450218 116.32111226 -95.52095604 109.64318085 C-95.52258014 107.20249807 -95.53075642 104.7618087 -95.54625893 102.32117462 C-95.72092783 72.70002355 -88.98396211 49.41772221 -68.0625 27.5 C-67.52367187 26.88640625 -66.98484375 26.2728125 -66.4296875 25.640625 C-49.96849531 7.60776119 -23.49763612 0.60598442 0 0 Z M-30.0625 62.5 C-40.50078774 76.73609614 -40.27031862 92.6934325 -40.10009766 109.71899414 C-40.09207658 110.96420208 -40.0840555 112.20941002 -40.07579136 113.49235153 C-40.05281874 116.88158205 -40.02497616 120.27070291 -39.99480796 123.65987229 C-39.96372209 127.28084409 -39.93887323 130.90185971 -39.91316223 134.52287292 C-39.86273523 141.47824487 -39.80624936 148.43355438 -39.74743193 155.38885993 C-39.70038925 160.96759759 -39.65589908 166.54635055 -39.61306763 172.12512207 C-39.25072493 219.25198447 -38.80543723 266.37738246 -38.0625 313.5 C-36.61867857 313.35606358 -35.17532179 313.20746116 -33.73217773 313.05688477 C-32.92836166 312.9746315 -32.12454559 312.89237823 -31.29637146 312.80763245 C-19.83709644 311.22954487 -9.48417147 300.91365278 -2.81640625 292.14453125 C5.16406716 280.11161254 6.24898847 268.33517366 6.3515625 254.3046875 C6.37063764 252.61946352 6.39040493 250.93424726 6.41079712 249.2490387 C6.46381718 244.60355063 6.50329669 239.95803801 6.53919983 235.31238937 C6.5625375 232.37027286 6.58887339 229.42819753 6.61608887 226.4861145 C6.76237336 210.49094313 6.85694001 194.49562319 6.9375 178.5 C6.94467842 177.10297898 6.95186548 175.70595801 6.95906067 174.30893707 C7.06397138 153.80582904 7.13330501 133.30281623 7.17197978 112.79947925 C7.18270745 107.45163906 7.20069949 102.10385206 7.22149658 96.75604248 C7.24681353 90.1806234 7.26107216 83.60528825 7.26143897 77.02981871 C7.26186638 73.63044005 7.26715147 70.23124639 7.28508377 66.83191109 C7.30199905 63.11492584 7.30039778 59.39840387 7.29394531 55.68139648 C7.30316324 54.58352751 7.31238117 53.48565853 7.32187843 52.3545208 C7.31630613 51.35604685 7.31073383 50.3575729 7.30499268 49.32884216 C7.30645924 48.46293677 7.3079258 47.59703138 7.3094368 46.70488644 C6.85401277 44.00507756 6.10495021 43.12764815 3.9375 41.5 C-8.54996065 39.06342231 -22.69877168 54.04072641 -30.0625 62.5 Z " fill="#9B6E43" transform="translate(957.0625,30.5)"/>
<path d="M0 0 C2.70479179 1.17121614 5.29508934 2.47167809 7.90234375 3.84619141 C9.90566419 4.85776905 11.90959798 5.86813269 13.9140625 6.87744141 C14.96126465 7.41240234 16.0084668 7.94736328 17.08740234 8.49853516 C20.54648775 10.23088018 24.03713442 11.87534027 27.546875 13.50244141 C28.74054688 14.05971924 29.93421875 14.61699707 31.1640625 15.19116211 C33.46891826 16.26546197 35.77733482 17.33216732 38.08984375 18.38989258 C45.37248096 21.83190499 51.3196422 25.90021511 57.40234375 31.15869141 C58.2334668 31.83641602 59.06458984 32.51414063 59.92089844 33.21240234 C67.32228878 39.25336208 72.56846269 46.65394631 74.40234375 56.15869141 C74.68652382 60.0114505 74.65787525 63.85168287 74.6328125 67.71337891 C74.63276215 68.92936264 74.63271179 70.14534637 74.63265991 71.3981781 C74.62959615 74.86626239 74.61689505 78.33406902 74.59978104 81.80209732 C74.58632886 84.82302292 74.58008958 87.84394865 74.57353497 90.86489582 C74.54743073 102.38689525 74.48610483 113.90867485 74.42268372 125.4305191 C74.40083972 129.43436925 74.37975076 133.43822293 74.35876465 137.44207764 C74.25410543 157.32611959 74.13765458 177.21007324 74.01135176 197.09398937 C73.98025565 201.99631123 73.95003786 206.89863748 73.92049694 211.80096895 C73.87278109 219.7100446 73.82198059 227.61908969 73.76576614 235.52810985 C73.739639 239.20821399 73.71465949 242.88831433 73.69321823 246.56844902 C73.60832684 260.91043421 73.45558191 275.25171 73.07006836 289.58911133 C73.04879411 290.72664762 73.02751986 291.8641839 73.00560093 293.03619099 C72.59060403 306.13186075 68.59813378 314.14311794 59.21875 323.28759766 C49.49345964 331.66807552 34.54847444 340.15869141 21.40234375 340.15869141 C21.40234375 301.87869141 21.40234375 263.59869141 21.40234375 224.15869141 C-9.34046876 220.21294216 -9.34046876 220.21294216 -34.59765625 229.15869141 C-35.17748728 231.38370778 -35.17748728 231.38370778 -35.07194519 233.80227661 C-35.07599869 234.73044189 -35.08005219 235.65860718 -35.08422852 236.61489868 C-35.06030029 238.13148575 -35.06030029 238.13148575 -35.03588867 239.67871094 C-35.03486649 240.74897522 -35.0338443 241.8192395 -35.03279114 242.92193604 C-35.02490185 246.46213617 -34.98890495 250.00148508 -34.953125 253.54150391 C-34.94312567 255.99721594 -34.93503824 258.45293645 -34.92878723 260.90866089 C-34.907837 267.375483 -34.86374947 273.84193658 -34.81402588 280.30859375 C-34.73879559 290.66715311 -34.7008323 301.02593503 -34.6585331 311.38467026 C-34.64077438 315.01099969 -34.61465113 318.63719249 -34.58695984 322.26345825 C-34.57374624 324.47479191 -34.56062375 326.68612611 -34.54760742 328.89746094 C-34.53278824 330.4201207 -34.53278824 330.4201207 -34.51766968 331.97354126 C-34.5132637 332.89606689 -34.50885773 333.81859253 -34.50431824 334.76907349 C-34.49820117 335.57321245 -34.4920841 336.37735142 -34.48578167 337.20585823 C-34.59765625 339.15869141 -34.59765625 339.15869141 -35.59765625 341.15869141 C-41.53329271 341.58102 -45.17561683 340.41711034 -50.28515625 337.72119141 C-50.98213623 337.36065674 -51.67911621 337.00012207 -52.3972168 336.62866211 C-65.21630849 329.80405685 -80.68246367 318.38670787 -87.59765625 305.15869141 C-89.17181348 299.73598226 -89.83482425 295.10636484 -89.76464844 289.41821289 C-89.75835419 288.6790778 -89.75205994 287.9399427 -89.74557495 287.17840958 C-89.72193026 284.71197826 -89.68328098 282.24602197 -89.64453125 279.77978516 C-89.62393615 277.9872175 -89.60420651 276.19463973 -89.58526611 274.40205383 C-89.53053514 269.49709739 -89.46223746 264.59241237 -89.39123535 259.68766785 C-89.33270814 255.53578074 -89.28177997 251.38381403 -89.23078156 247.23182869 C-89.04562776 232.20706136 -88.82522905 217.18286808 -88.59765625 202.15869141 C-88.57859222 200.89551338 -88.5595282 199.63233536 -88.53988647 198.33087921 C-88.24041781 178.52323833 -87.9247545 158.71589544 -87.59765625 138.90869141 C-87.57676437 137.6376997 -87.5558725 136.36670799 -87.53434753 135.05720139 C-87.30013578 120.83586679 -87.05388576 106.61492222 -86.77155685 92.394454 C-86.65666268 86.53686468 -86.56042281 80.67956186 -86.48764038 74.82130051 C-86.44395401 71.53773946 -86.38543156 68.25456909 -86.32275391 64.97132111 C-86.2982303 63.51383379 -86.28018287 62.05621885 -86.26953125 60.59856415 C-86.19950226 51.43136624 -85.50073995 44.22332519 -79.79858398 36.82421875 C-73.42302216 31.26481165 -66.37738564 27.57874163 -58.84103394 23.85998535 C-55.88092208 22.39912834 -52.93630039 20.90825634 -49.99067688 19.41845703 C-48.53428061 18.68199248 -47.07716513 17.94694833 -45.61930847 17.21337891 C-40.02559702 14.39474525 -34.50116655 11.46859663 -29.03515625 8.40869141 C-28.37201416 8.03953613 -27.70887207 7.67038086 -27.02563477 7.29003906 C-26.10028931 6.76869385 -26.10028931 6.76869385 -25.15625 6.23681641 C-24.5669873 5.90617187 -23.97772461 5.57552734 -23.37060547 5.23486328 C-21.54716083 4.16586164 -21.54716083 4.16586164 -19.75048828 2.78564453 C-13.4947101 -1.72775779 -7.37430961 -2.38833373 0 0 Z M-26.59765625 45.15869141 C-30.63731539 51.89427369 -33.72648016 58.12539703 -33.71791077 66.04351807 C-33.71928543 67.02505859 -33.7206601 68.00659912 -33.72207642 69.0178833 C-33.71848114 70.08818787 -33.71488586 71.15849243 -33.71118164 72.26123047 C-33.71132767 73.39322876 -33.71147369 74.52522705 -33.71162415 75.69152832 C-33.71092709 79.43581046 -33.70314429 83.18004295 -33.6953125 86.92431641 C-33.69344759 89.51934787 -33.69202403 92.11437968 -33.69102478 94.70941162 C-33.68759583 100.84333336 -33.67971308 106.97723459 -33.66967529 113.1111486 C-33.65849431 120.09538652 -33.6529987 127.0796253 -33.64797986 134.06386995 C-33.63752994 148.42882002 -33.61994286 162.79375508 -33.59765625 177.15869141 C-30.7658669 177.163694 -27.9340866 177.16731274 -25.10229492 177.17016602 C-24.31143242 177.17170433 -23.52056992 177.17324265 -22.70574188 177.17482758 C-15.10060981 177.18055167 -7.51095179 176.98409967 0.08984375 176.72119141 C1.38083984 176.681875 2.67183594 176.64255859 4.00195312 176.60205078 C5.87657227 176.53920898 5.87657227 176.53920898 7.7890625 176.47509766 C8.89467529 176.43843994 10.00028809 176.40178223 11.1394043 176.36401367 C14.59993522 176.14625785 17.97353127 175.66547901 21.40234375 175.15869141 C21.47259918 160.7284485 21.52521279 146.29823233 21.55778027 131.86785316 C21.57321238 125.16672224 21.5946097 118.4657136 21.62866211 111.76464844 C21.6613381 105.29370369 21.67921427 98.82286951 21.68697548 92.3518486 C21.69250416 89.88719315 21.70330027 87.42254352 21.71953392 84.95793533 C21.74141725 81.49689057 21.74430606 78.0362985 21.74291992 74.57519531 C21.75370575 73.56386536 21.76449158 72.5525354 21.77560425 71.51055908 C21.71971654 58.55320865 17.34958868 49.2877334 8.3125 40.01416016 C3.87672473 35.97002724 -0.39615557 32.64587629 -6.47265625 31.72119141 C-15.13749776 32.93426922 -21.26189127 38.49390747 -26.59765625 45.15869141 Z " fill="#9A6C42" transform="translate(151.59765625,29.84130859375)"/>
<path d="M0 0 C5.52766647 4.81666394 8.66574583 10.70924679 11.4375 17.375 C11.81455078 18.24278076 12.19160156 19.11056152 12.58007812 20.00463867 C13.73417982 22.66395383 14.86946771 25.33059094 16 28 C25.60928405 52.9190638 25.60928405 52.9190638 45.1875 69.3125 C48.096253 70.39812907 50.97589329 71.29785109 54 72 C53.42156515 76.50173212 51.65269386 79.58175201 49.3125 83.4375 C43.67693604 93.00840693 38.39035487 102.67970887 38 114 C52.20668915 105.94883284 61.96585007 95.1214127 72 82.40234375 C74.1999721 79.75979914 76.4725246 77.3320949 79 75 C79.66 75 80.32 75 81 75 C82.2265625 76.72265625 82.2265625 76.72265625 83.625 79.0625 C88.47372141 86.53565071 94.25629405 91.82489844 103 94 C112.2583226 95.54585905 121.76157033 95.11543047 131.11425781 95.06933594 C132.93848562 95.06409562 134.76271466 95.0592698 136.58694458 95.05482483 C141.51637891 95.04124739 146.44576047 95.02080287 151.37516117 94.99825954 C154.45710238 94.98435706 157.53904627 94.97173362 160.62099457 94.9595108 C170.27135712 94.92097047 179.9216886 94.87840715 189.57200551 94.82973552 C200.7002504 94.77361045 211.82844337 94.730627 222.95678449 94.69905448 C231.57192988 94.67384959 240.18697968 94.63725935 248.80204272 94.59196877 C253.94298012 94.56518148 259.08383132 94.54317584 264.22483063 94.53295135 C269.05455792 94.52301606 273.88401004 94.49895036 278.71361923 94.46401787 C280.48489764 94.45362894 282.25621418 94.44830976 284.02752304 94.44845009 C286.44682149 94.44785808 288.8653157 94.42893385 291.28448486 94.40545654 C291.983903 94.409622 292.68332114 94.41378746 293.40393376 94.41807914 C297.97265198 94.34767615 301.07186264 93.30070232 305 91 C304.89207179 88.0957107 304.89207179 88.0957107 304 85 C299.51132007 81.48184546 295.29097277 80.86287692 289.72509766 80.9465332 C288.11671776 80.96710785 288.11671776 80.96710785 286.47584534 80.98809814 C285.300457 81.00878357 284.12506866 81.02946899 282.9140625 81.05078125 C281.04239662 81.07806305 281.04239662 81.07806305 279.13291931 81.105896 C275.68685728 81.1579784 272.24096013 81.21525038 268.7950325 81.27528763 C266.62126269 81.31256409 264.44746841 81.34766077 262.27365112 81.38204956 C244.25171941 81.66818244 226.23298571 82.04848906 208.21484375 82.515625 C207.35156464 82.53798407 206.48828552 82.56034313 205.59884644 82.58337975 C197.12439965 82.80375126 188.65016551 83.03062012 180.17625809 83.27086544 C170.4514775 83.54623325 160.72650633 83.79405897 151 84 C150.33050072 84.01479149 149.66100143 84.02958298 148.97121429 84.04482269 C144.61501588 84.13933528 140.25931299 84.20122161 135.90234375 84.24609375 C134.84696915 84.26769058 133.79159454 84.28928741 132.70423889 84.3115387 C117.50536576 84.38421559 104.15119593 78.73172155 93.19921875 68.23828125 C85.77763463 60.68487503 85.77763463 60.68487503 83.875 56.5625 C84.24732168 48.92990557 90.19147601 43.04884788 94.87890625 37.515625 C96.66927204 35.39224458 98.36119259 33.24092514 100 31 C102.6875 31.125 102.6875 31.125 106 32 C107.19231621 33.39103557 108.3761658 34.79201949 109.48046875 36.25390625 C116.37863367 44.18058933 127.76672962 49.32513764 138 51 C140.23474601 51.0930994 142.47195423 51.13319343 144.70863342 51.13803101 C145.70076998 51.14226293 145.70076998 51.14226293 146.71294969 51.14658034 C148.92200776 51.15489116 151.13101549 51.15626159 153.34008789 51.15771484 C154.92724752 51.16238583 156.51440581 51.16752986 158.1015625 51.17311096 C161.5173079 51.18437626 164.93304466 51.19281816 168.34880257 51.19923019 C173.75872646 51.20993543 179.16858837 51.23018861 184.57847595 51.25234985 C199.96171211 51.31418413 215.34494479 51.36821544 230.72827148 51.40136719 C239.22621374 51.41976074 247.72405218 51.44875737 256.22191805 51.4893719 C260.71368169 51.51036558 265.20531493 51.52588826 269.6971302 51.52817917 C273.92845132 51.53033976 278.15950115 51.54635158 282.39073944 51.57256889 C283.9353555 51.57971041 285.48000462 51.58188815 287.02463341 51.57846642 C301.05224186 51.55237772 313.4183926 52.73622991 323.8984375 62.828125 C331.18042768 71.15948494 334.46549512 82.25846581 336 93 C350.19 93 364.38 93 379 93 C379 81.41506517 377.75254901 72.02676419 369.4609375 63.3984375 C368.99945312 62.97820313 368.53796875 62.55796875 368.0625 62.125 C367.381875 61.42375 366.70125 60.7225 366 60 C366.20069977 55.94237422 368.81041863 53.75574961 371.5 50.9375 C374.88600646 47.33463492 378.11232719 43.69014647 381.1875 39.8125 C387.35512275 32.15306959 394.21765463 25.11240609 401 18 C404.07226821 21.07226821 403.71856576 24.84716121 404.0625 29 C404.14483887 29.95044189 404.22717773 30.90088379 404.31201172 31.88012695 C406.34471959 57.50230908 406.46438619 83.39182435 405.5625 109.0625 C405.52334473 110.21298828 405.48418945 111.36347656 405.44384766 112.54882812 C405.40179199 113.61681641 405.35973633 114.68480469 405.31640625 115.78515625 C405.27974854 116.74301025 405.24309082 117.70086426 405.20532227 118.68774414 C405 121 405 121 404 123 C400.45068982 124.33823883 396.77013472 124.15226892 393.01977539 124.18945312 C392.30809456 124.19776626 391.59641373 124.20607939 390.86316681 124.21464443 C388.44135466 124.24158741 386.01953658 124.26143847 383.59765625 124.28125 C381.81599084 124.29918838 380.03432891 124.31747506 378.25267029 124.33607483 C373.25718011 124.38662191 368.2616496 124.43031635 363.26608276 124.47252274 C360.04586492 124.50014268 356.82566677 124.52945814 353.60546875 124.55929565 C309.05059674 124.9705259 264.49449221 125.24441538 219.93856424 125.51167095 C214.39322901 125.5449507 208.84789763 125.5787906 203.30256909 125.61316764 C182.97480816 125.73900146 162.64709493 125.8485613 142.31909275 125.92714119 C131.88387482 125.96851458 121.44896596 126.02889877 111.01394224 126.10485345 C103.02557796 126.16204028 95.03721402 126.20446323 87.04871035 126.23661155 C82.27648647 126.25638096 77.50453615 126.2830734 72.73246765 126.3269062 C68.30244396 126.36743559 63.87272497 126.38936217 59.44252586 126.39680028 C57.81598496 126.40287706 56.18945334 126.41587676 54.56302834 126.43622279 C52.34163707 126.46300227 50.12154203 126.46512532 47.90002441 126.46104431 C46.6567765 126.46860717 45.41352859 126.47617002 44.13260651 126.48396206 C40.40980757 125.9088201 39.28033437 124.93027222 37 122 C36.67 121.34 36.34 120.68 36 120 C35.01 121.32 34.02 122.64 33 124 C29.53790484 122.84596828 29.3336704 122.36657476 27.609375 119.328125 C27.15522217 118.5340625 26.70106934 117.74 26.2331543 116.921875 C25.74371338 116.04015625 25.25427246 115.1584375 24.75 114.25 C24.22768799 113.321875 23.70537598 112.39375 23.16723633 111.4375 C17.1703493 100.67778371 11.5548298 89.71736592 5.94822693 78.75115967 C3.57724288 74.11633315 1.18413126 69.4933614 -1.21875 64.875 C-1.91107449 63.54298074 -2.60337622 62.21094964 -3.2956543 60.87890625 C-4.29493389 58.95633586 -5.29474357 57.03405358 -6.29653931 55.11279297 C-7.21678741 53.34715663 -8.13385046 51.57986136 -9.05078125 49.8125 C-9.57325439 48.80832031 -10.09572754 47.80414062 -10.6340332 46.76953125 C-11.89304231 44.21685935 -12.9853771 41.65788076 -14 39 C-17.465 41.475 -17.465 41.475 -21 44 C-20.41513005 48.60048561 -19.16471389 52.32630002 -17.26953125 56.55078125 C-16.71053264 57.81124411 -16.15161642 59.07174352 -15.59277344 60.33227539 C-15.30140503 60.98277863 -15.01003662 61.63328186 -14.70983887 62.30349731 C2.74793712 101.38875277 2.74793712 101.38875277 -1.125 115 C-2.93162065 119.4959281 -5.62591152 122.46092649 -9.70040894 125.1023407 C-12.89142715 126.34797399 -15.97582497 126.36472552 -19.35595703 126.42504883 C-20.12379894 126.4453459 -20.89164085 126.46564297 -21.6827507 126.4865551 C-24.33265043 126.55120411 -26.98252033 126.59886953 -29.6328125 126.64453125 C-31.05654364 126.67296584 -31.05654364 126.67296584 -32.50903702 126.70197487 C-65.21924127 127.33874266 -97.94820727 126.96023994 -130.66116548 126.73973 C-138.03821949 126.69090189 -145.41529976 126.65429896 -152.79243457 126.62020558 C-159.99344045 126.58647789 -167.19437638 126.54519817 -174.39530575 126.49788028 C-178.65992125 126.46994301 -182.92450295 126.44484149 -187.18917465 126.4272213 C-191.16408225 126.4104973 -195.13881765 126.38433163 -199.11361885 126.35091019 C-200.5652224 126.34027435 -202.01685472 126.33294835 -203.46849251 126.32924461 C-205.45396612 126.32364855 -207.43938863 126.30472185 -209.42477417 126.28520203 C-210.53239546 126.27837245 -211.64001675 126.27154287 -212.78120232 126.26450634 C-216.45089654 125.96294735 -219.49783124 125.11352809 -223 124 C-221.67872761 121.01095788 -220.33290166 119.14908276 -217.83984375 117.046875 C-217.21537354 116.51433105 -216.59090332 115.98178711 -215.94750977 115.43310547 C-215.28420654 114.87768066 -214.62090332 114.32225586 -213.9375 113.75 C-212.57026925 112.58077974 -211.20308158 111.41150911 -209.8359375 110.2421875 C-207.66412741 108.4004333 -205.4834462 106.57276386 -203.2890625 104.7578125 C-193.89976074 96.81808715 -188.10431845 87.07869118 -183 76 C-180.67578125 75.7421875 -180.67578125 75.7421875 -178 76 C-176.48046875 77.7578125 -176.48046875 77.7578125 -175.1875 80.125 C-170.17686769 88.24655925 -163.01416548 92.24488673 -154 95 C-150.04319614 95.75696298 -146.25927108 96.14102426 -142.23388672 96.20532227 C-140.55339737 96.23521744 -140.55339737 96.23521744 -138.83895874 96.26571655 C-137.63139923 96.28244415 -136.42383972 96.29917175 -135.1796875 96.31640625 C-133.2715477 96.34778183 -133.2715477 96.34778183 -131.32485962 96.37979126 C-127.88601765 96.43568363 -124.44711476 96.48528822 -121.00814819 96.5328331 C-118.87480228 96.56250275 -116.74147771 96.59342169 -114.6081543 96.62466431 C-97.17398421 96.8783241 -79.73830408 97.11299162 -62.30230713 97.17623901 C-60.44759571 97.18369212 -58.5928941 97.194326 -56.73822021 97.20828247 C-54.18996816 97.22594674 -51.64205542 97.23030759 -49.09375 97.23046875 C-48.36741364 97.23760895 -47.64107727 97.24474915 -46.89273071 97.25210571 C-42.20115525 97.23117267 -38.41004537 96.45167589 -34 95 C-34.46897705 93.97229492 -34.9379541 92.94458984 -35.42114258 91.88574219 C-37.18139263 88.02119826 -38.92813449 84.15066751 -40.67114258 80.27832031 C-41.42308322 78.61263106 -42.17853403 76.94852128 -42.93774414 75.28613281 C-55.33439877 48.12299506 -55.33439877 48.12299506 -51.34765625 36.01953125 C-47.27162595 26.60897281 -38.76494079 19.39551409 -31 13 C-30.24074219 12.34128906 -29.48148438 11.68257812 -28.69921875 11.00390625 C-10.48171793 -4.3662021 -10.48171793 -4.3662021 0 0 Z " fill="#A07145" transform="translate(886,520)"/>
<path d="M0 0 C3.53675651 1.52852925 5.99564746 3.6416389 8.8125 6.25 C10.13701172 7.45462891 10.13701172 7.45462891 11.48828125 8.68359375 C12.95635888 10.03751293 14.41631135 11.40053534 15.85546875 12.78515625 C25.59396264 21.82969571 37.32880702 22.15636036 49.9296875 22.0625 C52.45971604 22.05357398 54.98974539 22.04487908 57.51977539 22.03637695 C58.88908948 22.03019784 60.25840304 22.02389866 61.62771606 22.01748657 C69.0603661 21.98463954 76.49306902 21.98196322 83.92578125 21.98046875 C84.73084799 21.98028433 85.53591473 21.98009991 86.36537743 21.9799099 C107.74371913 21.97881127 129.12124235 22.08905703 150.49884033 22.26245117 C154.86776391 22.29735345 159.23664177 22.32501948 163.60565186 22.34643555 C168.81277121 22.37226705 174.0195922 22.41241223 179.22652626 22.46318626 C181.15728476 22.47970244 183.08809251 22.49131058 185.01891136 22.49761391 C210.0504207 22.58823579 210.0504207 22.58823579 220 32 C229.75778047 41.87750784 231.42509276 53.38115598 231.38201904 66.67573547 C231.35125596 69.38835808 231.30119837 72.10019387 231.25 74.8125 C231.22988976 76.68031924 231.21164705 78.54815955 231.1953125 80.41601562 C231.15170856 84.94454098 231.08293567 89.47203122 231 94 C219.01508347 94.94825066 207.0566817 95.28553018 195.0390625 95.49609375 C193.96806934 95.51587217 192.89707619 95.5356506 191.79362869 95.55602837 C153.8683034 96.25075746 115.93612627 96.57339569 78.00675511 96.9627918 C69.4304001 97.05106203 60.85408286 97.14264111 52.27777135 97.23503023 C42.81007607 97.33692365 33.34235533 97.43625248 23.87462234 97.53457451 C19.92923681 97.57559996 15.98386196 97.61748197 12.03849411 97.66017342 C-14.64191819 97.94779666 -41.31806185 98.05391434 -68 98 C-67.73570755 96.54975664 -67.45543643 95.10241915 -67.16845703 93.65649414 C-67.01410187 92.85023087 -66.8597467 92.04396759 -66.70071411 91.21327209 C-65.57122672 87.64567886 -62.95045347 86.21359647 -59.875 84.4375 C-45.47540365 75.10613921 -34.55554847 62.09038503 -25 48 C-21.14684283 49.29540104 -19.08484466 50.69400482 -16.4375 53.75 C-10.2300021 60.22892842 -1.74628393 64.62988791 7.29379177 65.12584114 C8.08318677 65.12621817 8.87258177 65.12659519 9.68589783 65.12698364 C11.05880321 65.1312181 11.05880321 65.1312181 12.45944405 65.1355381 C13.45372351 65.13351072 14.44800297 65.13148335 15.47241211 65.12939453 C16.53239347 65.13111853 17.59237484 65.13284252 18.68447685 65.13461876 C22.21544802 65.13896858 25.74637193 65.13600946 29.27734375 65.1328125 C31.77251705 65.13391202 34.26769022 65.13534264 36.76286316 65.13708496 C43.44205069 65.13999294 50.12120949 65.13574186 56.80039215 65.12897491 C60.23855234 65.12550218 63.67671199 65.12322314 67.11487341 65.12139618 C99.72366476 65.10403739 132.33338658 65.07216205 164.93989944 64.6521225 C167.11916304 64.62507245 169.2984407 64.60146078 171.47775269 64.57867432 C175.42549159 64.53641199 179.3728456 64.4770137 183.3203125 64.4140625 C184.43955612 64.40250122 185.55879974 64.39093994 186.71195984 64.37902832 C195.32926249 64.29189479 195.32926249 64.29189479 202.875 60.5 C204.2 59.04583333 204.2 59.04583333 204 57 C200.91783316 55.97261105 198.61504601 55.80603763 195.37980652 55.69746399 C194.21798261 55.65755687 193.0561587 55.61764975 191.859128 55.57653332 C190.58843558 55.53878953 189.31774317 55.50104574 188.00854492 55.4621582 C187.01905399 55.43113508 187.01905399 55.43113508 186.00957334 55.39948523 C170.8657186 54.9267535 155.72012395 54.77186379 140.57012367 54.64613914 C135.72971457 54.60541112 130.88942195 54.55558853 126.04911804 54.50398254 C125.22189517 54.49519945 124.39467229 54.48641635 123.54238206 54.4773671 C121.85585573 54.45944352 120.16932961 54.44150001 118.4828037 54.4235369 C107.26913938 54.3044449 96.05549242 54.19124363 84.84155273 54.10131836 C77.1944384 54.03992649 69.54759515 53.96471898 61.9007737 53.87374955 C57.8806075 53.82647043 53.86064791 53.78603648 49.84026527 53.76274681 C46.07625972 53.7408597 42.31287943 53.70068474 38.54919815 53.64694023 C36.52994726 53.62277757 34.5104951 53.61774411 32.49110413 53.61349487 C13.74187973 53.29401263 0.62514151 43.77747329 -12.1796875 30.7890625 C-17 25.58157631 -17 25.58157631 -17 21 C-15.56640625 18.80859375 -15.56640625 18.80859375 -13.5625 16.4375 C-12.84191406 15.57253906 -12.12132812 14.70757813 -11.37890625 13.81640625 C-10.59386719 12.88699219 -9.80882812 11.95757813 -9 11 C-7.32644465 8.96389495 -5.6641003 6.91886328 -4 4.875 C-2.66721874 3.24954718 -1.33409037 1.62437855 0 0 Z " fill="#A17246" transform="translate(108,550)"/>
<path d="M0 0 C0.8556958 0.03456299 1.7113916 0.06912598 2.59301758 0.10473633 C7.63129748 0.37253723 12.02077887 1.09890504 16.8125 2.6875 C17.1425 4.3375 17.4725 5.9875 17.8125 7.6875 C16.95197021 7.98406494 16.09144043 8.28062988 15.20483398 8.58618164 C-6.95908009 16.01104776 -6.95908009 16.01104776 -28.1875 25.6875 C-29.12980469 26.17476562 -30.07210937 26.66203125 -31.04296875 27.1640625 C-38.35318991 31.20250078 -44.1062669 36.19393363 -47.1875 44.125 C-49.08669448 50.99041111 -48.04949436 57.63854036 -44.58984375 63.84375 C-39.11589403 71.04069782 -29.455313 74.01066502 -21.1875 76.6875 C-20.19878906 77.00976562 -19.21007812 77.33203125 -18.19140625 77.6640625 C1.45439614 82.91275378 22.99581622 79.87665876 42.60546875 76.0546875 C44.8125 75.6875 44.8125 75.6875 47.8125 75.6875 C46.07009275 82.88944997 43.26621829 86.87405289 38.15625 92.19140625 C35.9265744 94.56601076 33.9966981 97.00789424 32.0625 99.625 C28.60569016 104.15158471 25.4157415 106.52470733 19.8125 107.6875 C18.258634 107.77670703 16.70144335 107.81536644 15.14501953 107.81689453 C13.73878326 107.82156235 13.73878326 107.82156235 12.30413818 107.82632446 C11.27822571 107.82434052 10.25231323 107.82235657 9.1953125 107.8203125 C8.10236877 107.82163177 7.00942505 107.82295105 5.88336182 107.8243103 C2.23471394 107.82625145 -1.41385964 107.81981297 -5.0625 107.8125 C-6.31295105 107.81161377 -7.5634021 107.81072754 -8.85174561 107.80981445 C-41.96709453 107.78261799 -75.07750084 107.24192569 -108.1875 106.6875 C-108.25085037 107.6486824 -108.31420074 108.60986481 -108.37947083 109.60017395 C-108.46541 110.8610936 -108.55134918 112.12201324 -108.63989258 113.42114258 C-108.76585564 115.29604118 -108.76585564 115.29604118 -108.8943634 117.20881653 C-110.24919273 133.28672168 -117.31848044 146.87279443 -129.1875 157.6875 C-142.96728642 168.51242875 -157.7719595 173.0577368 -175.1875 171.6875 C-178.9687757 170.96000624 -182.56152896 169.97809986 -186.1875 168.6875 C-186.1875 167.6975 -186.1875 166.7075 -186.1875 165.6875 C-184.421875 164.29296875 -184.421875 164.29296875 -181.9375 162.875 C-180.56658203 162.08609375 -180.56658203 162.08609375 -179.16796875 161.28125 C-176.2343568 159.7125558 -173.2595971 158.29128099 -170.25 156.875 C-155.28589823 149.45050335 -144.03678596 136.34170416 -138.1875 120.6875 C-137.37541582 116.65956249 -137.1875 112.78113211 -137.1875 108.6875 C-138.3940625 108.58953125 -139.600625 108.4915625 -140.84375 108.390625 C-142.45841175 108.24042391 -144.07299105 108.0893347 -145.6875 107.9375 C-146.47898437 107.875625 -147.27046875 107.81375 -148.0859375 107.75 C-155.1729187 107.05291988 -160.58269007 105.1636292 -165.796875 100.20703125 C-176.87791707 86.19396162 -178.40563071 74.22924604 -177.1875 56.6875 C-175.2386366 46.38636489 -168.80339002 37.57706377 -160.1875 31.6875 C-150.85724014 26.66104331 -141.44290089 25.14290394 -131.0625 27.75 C-123.61182219 30.25305346 -118.10521458 35.5788785 -114.27734375 42.37109375 C-108.76613308 54.08488561 -108.17519042 65.92983204 -107.1875 78.6875 C-95.6375 78.3575 -84.0875 78.0275 -72.1875 77.6875 C-73.5075 72.7375 -74.8275 67.7875 -76.1875 62.6875 C-77.25040429 46.34534661 -73.62088046 35.42746053 -62.96875 23.125 C-51.65835489 11.08016365 -36.51059128 3.28843213 -20.1875 0.6875 C-19.16269531 0.50380859 -19.16269531 0.50380859 -18.1171875 0.31640625 C-12.07634689 -0.53604687 -6.07421996 -0.26711367 0 0 Z M-147 61.8125 C-148.69806927 64.493662 -149.0608144 66.52035993 -149.1875 69.6875 C-147.89596964 72.84457421 -146.97841697 74.27901949 -143.93359375 75.8515625 C-140.79690636 76.80640048 -138.61647826 76.70303955 -135.375 76.3125 C-134.39917969 76.20164062 -133.42335938 76.09078125 -132.41796875 75.9765625 C-131.31388672 75.83347656 -131.31388672 75.83347656 -130.1875 75.6875 C-131.74565996 70.26935288 -133.17205864 65.83247173 -137.1875 61.6875 C-140.45339293 60.05455353 -143.84695164 59.8554355 -147 61.8125 Z " fill="#A17246" transform="translate(537.1875,536.3125)"/>
<path d="M0 0 C3 1 3 1 4 3 C4.10094496 5.39116478 4.14167073 7.7535332 4.13803101 10.14511108 C4.14085229 10.88972678 4.14367357 11.63434247 4.14658034 12.40152228 C4.15494888 14.91010727 4.15626655 17.41864826 4.15771484 19.92724609 C4.16238169 21.72085698 4.16752504 23.51446669 4.17311096 25.30807495 C4.18440739 29.17895777 4.19283437 33.04983281 4.19923019 36.92072678 C4.20990366 43.04871237 4.23014943 49.17664261 4.25234985 55.30459595 C4.31428744 72.7334742 4.3682065 90.16235013 4.40136719 107.59130859 C4.41975035 117.2109972 4.44873767 126.83059395 4.4893719 136.45021498 C4.51038983 141.53893996 4.52589167 146.62754938 4.52817917 151.71632004 C4.53033698 156.51146079 4.54632125 161.30636148 4.57256889 166.10142899 C4.57972193 167.85406416 4.58188243 169.60672856 4.57846642 171.359375 C4.55674149 184.63410954 4.83837498 197.44616726 14 208 C21.34478937 214.20226658 29.63342709 215.43783873 38.9375 215 C40.61270877 214.92368069 42.28858472 214.86050742 43.96484375 214.8125 C44.6930835 214.77769531 45.42132324 214.74289062 46.17163086 214.70703125 C46.77499268 214.80371094 47.37835449 214.90039062 48 215 C50 218 50 218 50.1875 221.25 C48.10120983 227.83828474 42.96750265 230.42710474 37.07421875 233.55078125 C26.77869832 238.10235006 15.74985599 238.94541532 5 235.3125 C-5.79707184 230.68980158 -13.61844484 224.50403941 -18.95703125 213.91796875 C-22.71274951 203.41039745 -22.40376026 192.57892116 -22.5625 181.5625 C-22.5983153 179.55736146 -22.63479687 177.55223473 -22.671875 175.54711914 C-22.89716739 162.8594572 -23.05269726 150.17068204 -23.2143383 137.48208046 C-23.24617848 134.98554359 -23.27829438 132.48901037 -23.31044006 129.99247742 C-23.40603919 122.53426927 -23.49944247 115.07607145 -23.58123875 107.61769772 C-23.79662169 86.99477989 -23.79662169 86.99477989 -24.34375 66.37890625 C-24.37462708 65.13704811 -24.37462708 65.13704811 -24.40612793 63.87010193 C-24.76497135 55.43448146 -26.60431118 48.55190786 -32 42 C-31.62379985 38.79472561 -30.37678611 36.90338695 -28.33984375 34.4609375 C-27.7974707 33.80311279 -27.25509766 33.14528809 -26.69628906 32.4675293 C-26.11588867 31.77699463 -25.53548828 31.08645996 -24.9375 30.375 C-23.74320924 28.93122144 -22.54919799 27.48721162 -21.35546875 26.04296875 C-20.77587402 25.34606934 -20.1962793 24.64916992 -19.59912109 23.93115234 C-17.61927125 21.54021917 -15.68009439 19.11871423 -13.75 16.6875 C-2.17279412 2.17279412 -2.17279412 2.17279412 0 0 Z " fill="#A07145" transform="translate(1341,434)"/>
<path d="M0 0 C3.66593844 2.13846409 5.37186148 4.14909847 7 8 C7.89652978 13.5459749 7.07459467 18.25363858 4.34765625 23.140625 C1.64422827 26.87057201 -1.87666276 29.93833138 -6 32 C-11.47957298 32.61766523 -15.62589942 33.04431644 -20.125 29.625 C-23.57786546 24.79098836 -23.59921761 20.83809154 -23 15 C-21.1692332 8.71363206 -17.24213534 4.73147072 -12 1 C-8.29778834 -0.85110583 -4.04093083 -0.46454795 0 0 Z " fill="#BE8957" transform="translate(1278,485)"/>
<path d="M0 0 C2.45243461 1.90063682 3.62927427 3.25854855 5 6 C5.54317573 10.9509132 5.52241949 14.89488185 3.375 19.4375 C-0.24337673 23.34153805 -3.22870837 24.77858855 -8.5 25.4375 C-12.6815053 24.91481184 -14.75429937 23.64184935 -18 21 C-20.84283308 16.73575038 -20.87169115 13.0027492 -20 8 C-17.94961265 4.24209945 -15.2490641 1.81020374 -11.6875 -0.5 C-7.65963352 -1.24937051 -3.96462883 -1.04488349 0 0 Z " fill="#A8784B" transform="translate(800,673)"/>
<path d="M0 0 C2.32572542 4.14585835 2.48545713 7.95010972 1.4375 12.5625 C-1.13450514 16.75568922 -3.84392224 19.98964075 -8.5625 21.5625 C-13.327281 22.18709676 -16.52390186 22.27653622 -20.5625 19.5 C-23.01385353 15.8995745 -23.63647187 13.92684049 -23.5625 9.5625 C-22.27551456 4.78992899 -20.18756161 1.50128573 -15.875 -1 C-10.37620505 -3.31257731 -5.17195233 -2.90133911 0 0 Z " fill="#B98654" transform="translate(831.5625,662.4375)"/>
<path d="M0 0 C0 10.56 0 21.12 0 32 C-8 32 -8 32 -10.9375 29.625 C-14.66322772 24.88316472 -14.60488405 20.8932989 -14 15 C-12.1692332 8.71363206 -8.24213534 4.73147072 -3 1 C-1 0 -1 0 0 0 Z " fill="#AA794B" transform="translate(1269,485)"/>
<path d="M0 0 C0 8.25 0 16.5 0 25 C-4.93892382 24.01221524 -6.43926971 23.26400276 -10 20 C-11.87855086 16.24289828 -11.66379578 12.08021262 -11 8 C-8.38546351 3.51104196 -5.40097778 0 0 0 Z " fill="#AD7C4D" transform="translate(791,673)"/>
<path d="M0 0 C6.24277457 3.74566474 6.24277457 3.74566474 8 8 C8.90241897 13.7556722 7.92300579 18.14848883 5.265625 23.2734375 C4 25 4 25 0 28 C0 18.76 0 9.52 0 0 Z " fill="#9B6E43" transform="translate(1277,485)"/>
<path d="M0 0 C7.18107833 2.39369278 7.18107833 2.39369278 9 5 C9.84169977 8.4338911 9.73156174 11.55048319 9 15 C7.07243962 18.12726593 4.85674014 20.68616975 2 23 C1.34 23 0.68 23 0 23 C0 15.41 0 7.82 0 0 Z " fill="#B07E4F" transform="translate(824,660)"/>
<path d="M0 0 C0.33 0 0.66 0 1 0 C1 8.91 1 17.82 1 27 C-4.81708449 23.5097493 -4.81708449 23.5097493 -6 20 C-6.99766355 13.17876548 -5.83531523 7.71098034 -2 2 C-1.34 1.34 -0.68 0.68 0 0 Z " fill="#8C613A" transform="translate(1261,490)"/>
<path d="M0 0 C1.65 0 3.3 0 5 0 C5 8.25 5 16.5 5 25 C3.35 25.33 1.7 25.66 0 26 C0 17.42 0 8.84 0 0 Z " fill="#BC8856" transform="translate(791,672)"/>
<path d="M0 0 C0.99 0 1.98 0 3 0 C3 9.57 3 19.14 3 29 C1.68 29.33 0.36 29.66 -1 30 C-1.02465746 25.8882744 -1.04283959 21.77657722 -1.05493164 17.66479492 C-1.0599708 16.26504772 -1.06680216 14.8653058 -1.07543945 13.46557617 C-1.0875232 11.45754223 -1.09269807 9.44947043 -1.09765625 7.44140625 C-1.10289307 6.23170166 -1.10812988 5.02199707 -1.11352539 3.77563477 C-1 1 -1 1 0 0 Z " fill="#AF7E4E" transform="translate(1274,485)"/>
<path d="M0 0 C0 6.93 0 13.86 0 21 C-5 18 -5 18 -6.375 15.75 C-7.43720337 11.07630517 -6.68920191 7.37840381 -4.5625 3.125 C-2.26470588 0 -2.26470588 0 0 0 Z " fill="#94683E" transform="translate(815,663)"/>
<path d="M0 0 C3 1 3 1 4.1640625 2.7578125 C5.82671215 7.21744286 6.08763151 12.597753 4.1015625 16.984375 C3 18.625 3 18.625 1 21 C0.34 20.67 -0.32 20.34 -1 20 C-0.67 13.4 -0.34 6.8 0 0 Z " fill="#90653C" transform="translate(800,674)"/>
<path d="M0 0 C0 6.6 0 13.2 0 20 C-5 15 -5 15 -5.62890625 12.5 C-5.51344207 8.1531134 -5.40382366 5.65132848 -3.0625 1.875 C-1 0 -1 0 0 0 Z " fill="#8A5F38" transform="translate(785,676)"/>
<path d="M0 0 C5 4 5 4 5.59375 6.4375 C5.5628125 7.283125 5.531875 8.12875 5.5 9 C5.4896875 9.845625 5.479375 10.69125 5.46875 11.5625 C4.91753639 14.42881078 3.99337259 15.8893702 2 18 C1.34 18 0.68 18 0 18 C0 12.06 0 6.12 0 0 Z " fill="#91653D" transform="translate(828,661)"/>
<path d="M0 0 C0.66 0 1.32 0 2 0 C2 7.59 2 15.18 2 23 C1.01 22.67 0.02 22.34 -1 22 C-1.02887814 18.52085059 -1.04675687 15.04173169 -1.0625 11.5625 C-1.07087891 10.56927734 -1.07925781 9.57605469 -1.08789062 8.55273438 C-1.09111328 7.60849609 -1.09433594 6.66425781 -1.09765625 5.69140625 C-1.10289307 4.81685791 -1.10812988 3.94230957 -1.11352539 3.04125977 C-1 1 -1 1 0 0 Z " fill="#9E7044" transform="translate(786,674)"/>
<path d="M0 0 C0.99 0 1.98 0 3 0 C3 7.26 3 14.52 3 22 C2.01 22 1.02 22 0 22 C0 14.74 0 7.48 0 0 Z " fill="#A57549" transform="translate(815,662)"/>
<path d="M0 0 C3.39250619 3.39250619 4.15520267 4.59772934 4.25 9.1875 C4.22007687 13.81062346 3.08900501 16.90903186 1 21 C0.67 21 0.34 21 0 21 C0 14.07 0 7.14 0 0 Z " fill="#895F38" transform="translate(1281,488)"/>
<path d="M0 0 C0.66 0 1.32 0 2 0 C2.25427918 3.1234924 2.47412319 6.24846821 2.6875 9.375 C2.76033203 10.26445313 2.83316406 11.15390625 2.90820312 12.0703125 C2.96298828 12.92109375 3.01777344 13.771875 3.07421875 14.6484375 C3.13182373 15.43395996 3.18942871 16.21948242 3.2487793 17.02880859 C3.16668213 17.67930176 3.08458496 18.32979492 3 19 C2.01 19.66 1.02 20.32 0 21 C0 14.07 0 7.14 0 0 Z " fill="#A37548" transform="translate(826,661)"/>
<path d="M0 0 C0.66 0 1.32 0 2 0 C2 4.29 2 8.58 2 13 C1.01 13.495 1.01 13.495 0 14 C-2.23150482 9.66825536 -1.97917594 6.71784771 -1 2 C-0.67 1.34 -0.34 0.68 0 0 Z " fill="#845A35" transform="translate(810,667)"/>
</svg>
